<?xml version="1.0" encoding="iso-8859-1"?>
<!-- Generator: Adobe Illustrator 19.0.0, SVG Export Plug-In . SVG Version: 6.00 Build 0)  -->
<svg xmlns="http://www.w3.org/2000/svg" xmlns:xlink="http://www.w3.org/1999/xlink" version="1.1" id="Layer_1" x="0px" y="0px" viewBox="0 0 512 512" style="enable-background:new 0 0 512 512;" xml:space="preserve" width="512px" height="512px">
<g>
	<g>
		<polygon points="478.585,105.747 478.585,72.357 445.195,72.357 445.195,38.967 311.637,38.967 311.637,72.357 278.247,72.357     278.247,105.747 233.727,105.747 233.727,72.357 200.338,72.357 200.338,38.967 66.779,38.967 66.779,72.357 33.39,72.357     33.39,105.746 0,105.746 0,306.084 33.39,306.084 33.39,339.474 66.779,339.474 66.779,372.864 100.169,372.864 100.169,406.253     166.948,406.253 166.948,439.643 233.727,439.643 233.727,473.033 278.247,473.033 278.247,439.643 345.026,439.643     345.026,406.253 411.805,406.253 411.805,372.864 445.195,372.864 445.195,339.474 478.585,339.474 478.585,306.098 512,306.098     512,105.759   " fill="#7525e6"/>
	</g>
</g>
<g>
</g>
<g>
</g>
<g>
</g>
<g>
</g>
<g>
</g>
<g>
</g>
<g>
</g>
<g>
</g>
<g>
</g>
<g>
</g>
<g>
</g>
<g>
</g>
<g>
</g>
<g>
</g>
<g>
</g>
</svg>
